<svg width="28" height="28" viewBox="0 0 28 28" fill="none" xmlns="http://www.w3.org/2000/svg">
<path fill-rule="evenodd" clip-rule="evenodd" d="M8.29741 2.2644H18.8685C22.7182 2.2644 24.8915 4.44789 24.9028 8.29757V18.8698C24.9028 22.7183 22.7182 24.9029 18.8685 24.9029H8.29741C4.44772 24.9029 2.26424 22.7183 2.26424 18.8698V8.29757C2.26424 4.44789 4.44772 2.2644 8.29741 2.2644ZM13.639 20.2168C14.1269 20.2168 14.5333 19.8545 14.5785 19.3678V7.83348C14.6238 7.48258 14.4552 7.13056 14.1495 6.93926C13.8315 6.74683 13.4466 6.74683 13.1421 6.93926C12.8354 7.13056 12.6667 7.48258 12.6995 7.83348V19.3678C12.7573 19.8545 13.1636 20.2168 13.639 20.2168ZM18.847 20.2168C19.3224 20.2168 19.7288 19.8545 19.7865 19.3678V15.6551C19.8194 15.2918 19.6507 14.9533 19.344 14.7609C19.0395 14.5684 18.6546 14.5684 18.3377 14.7609C18.0309 14.9533 17.8623 15.2918 17.9075 15.6551V19.3678C17.9528 19.8545 18.3592 20.2168 18.847 20.2168ZM9.30372 19.3678C9.25845 19.8545 8.85209 20.2168 8.36422 20.2168C7.8775 20.2168 7.47 19.8545 7.42586 19.3678V11.5462C7.3919 11.1942 7.56056 10.8444 7.86731 10.652C8.1718 10.4596 8.55778 10.4596 8.8634 10.652C9.16789 10.8444 9.33881 11.1942 9.30372 11.5462V19.3678Z" fill="#3674B5"/>
</svg>
