<svg width="31" height="29" viewBox="0 0 31 29" fill="none" xmlns="http://www.w3.org/2000/svg">
<path d="M29.4757 28.0393H0.750031M0.750031 12.2403L6.58564 7.57234M29.4757 12.2403L17.8044 2.90442C17.0404 2.29327 16.0912 1.96032 15.1128 1.96032C14.1345 1.96032 13.1852 2.29327 12.4213 2.90442L11.2981 3.8021M20.1398 4.3407V1.46814C20.1398 1.27768 20.2155 1.09502 20.3502 0.960339C20.4848 0.825661 20.6675 0.75 20.858 0.75H24.4487C24.6391 0.75 24.8218 0.825661 24.9565 0.960339C25.0912 1.09502 25.1668 1.27768 25.1668 1.46814V8.64955M3.62259 28.0393V10.0858M26.6031 10.0858V15.831M26.6031 28.0393V21.5761" stroke="#3674B5" stroke-width="1.5" stroke-linecap="round"/>
<path d="M19.422 28.0393V20.8579C19.422 18.827 19.422 17.8116 18.7901 17.181C18.161 16.5491 17.1455 16.5491 15.1132 16.5491C13.0809 16.5491 12.0668 16.5491 11.4363 17.181M10.8044 28.0393V20.8579" stroke="#3674B5" stroke-width="1.5" stroke-linecap="round" stroke-linejoin="round"/>
<path d="M17.9846 10.0859C17.9846 10.8478 17.6819 11.5784 17.1432 12.1171C16.6045 12.6559 15.8739 12.9585 15.112 12.9585C14.3502 12.9585 13.6195 12.6559 13.0808 12.1171C12.5421 11.5784 12.2395 10.8478 12.2395 10.0859C12.2395 9.32409 12.5421 8.59344 13.0808 8.05473C13.6195 7.51602 14.3502 7.21338 15.112 7.21338C15.8739 7.21338 16.6045 7.51602 17.1432 8.05473C17.6819 8.59344 17.9846 9.32409 17.9846 10.0859Z" stroke="#3674B5" stroke-width="1.5"/>
</svg>
